<?xml version="1.0" encoding="UTF-8"?>
<svg id="Layer_1" data-name="Layer 1" xmlns="http://www.w3.org/2000/svg" viewBox="0 0 16 16">
  <defs>
    <style>
      .cls-1 {
        fill: #2563eb;
      }

      .cls-2 {
        fill: #111827;
      }
    </style>
  </defs>
  <g>
    <path class="cls-2" d="M8.76,1.27v1.68H.5v-.56c0-.62.5-1.12,1.12-1.12h7.14Z"/>
    <path class="cls-1" d="M11.98,12.54c-.13,0-.23.1-.23.23v1.92c0,.42-.24.66-.53.66h-.47c-.29,0-.53-.24-.53-.53v-.69c0-.13-.1-.23-.23-.23h0c-.13,0-.23.1-.23.23v.69c0,.29-.24.53-.53.53h-.47c-.29,0-.53-.24-.53-.53v-.69c0-.13-.1-.23-.23-.23h0c-.13,0-.23.1-.23.23v.69c0,.29-.24.53-.53.53h-.47c-.29,0-.53-.24-.53-.53v-.69c0-.13-.1-.23-.23-.23h0c-.13,0-.23.1-.23.23v.69c0,.29-.24.53-.53.53h-.47c-.29,0-.53-.24-.53-.66v-1.92c0-.13-.1-.23-.23-.23H1.75c-.69,0-1.25-.56-1.25-1.25V2.95h6.21s0-1.18,0-1.18c0-.62.5-1.12,1.12-1.12h6.54c.62,0,1.12.5,1.12,1.12h0v9.52c0,.69-.56,1.25-1.25,1.25h-2.27Z"/>
  </g>
  <path class="cls-2" d="M11.76,5.15c-.68,0-1.3.28-1.74.72-.45.45-.72,1.06-.72,1.74s.28,1.3.72,1.75c.45.45,1.06.72,1.74.72s1.3-.28,1.75-.72c.45-.45.72-1.06.72-1.75,0-1.36-1.11-2.47-2.47-2.47ZM5.99,5.87c-.45-.45-1.06-.72-1.74-.72s-1.3.28-1.74.72c-.45.45-.72,1.06-.72,1.74,0,1.36,1.1,2.47,2.47,2.47.68,0,1.3-.28,1.74-.72.45-.45.72-1.06.72-1.75s-.28-1.3-.72-1.74Z"/>
  <path class="cls-2" d="M8.72,11.39h-1.44c-.26,0-.43-.29-.3-.52l.72-1.25c.13-.23.46-.23.6,0l.72,1.25c.13.23-.03.52-.3.52Z"/>
</svg>