<?xml version="1.0" encoding="UTF-8"?>
<svg id="Layer_1" data-name="Layer 1" xmlns="http://www.w3.org/2000/svg" viewBox="0 0 24 24">
  <defs>
    <style>
      .cls-1 {
        fill: #94a3b8;
      }

      .cls-2 {
        fill: #1b1e21;
      }
    </style>
  </defs>
  <path class="cls-2" d="M12.92,3.92v2.02H3v-.67c0-.74.6-1.35,1.35-1.35h8.57Z"/>
  <path class="cls-1" d="M16.77,17.45c-.15,0-.27.12-.27.27v2.31c0,.51-.29.8-.64.8h-.56c-.35,0-.64-.29-.64-.64v-.83c0-.15-.12-.27-.27-.27h0c-.15,0-.27.12-.27.27v.83c0,.35-.29.64-.64.64h-.56c-.35,0-.64-.29-.64-.64v-.83c0-.15-.12-.27-.27-.27h0c-.15,0-.27.12-.27.27v.83c0,.35-.29.64-.64.64h-.56c-.35,0-.64-.29-.64-.64v-.83c0-.15-.12-.27-.27-.27h0c-.15,0-.27.12-.27.27v.83c0,.35-.29.64-.64.64h-.56c-.35,0-.64-.29-.64-.8v-2.31c0-.15-.12-.27-.27-.27h-2.73c-.83,0-1.5-.67-1.5-1.5V5.94h7.45s0-1.42,0-1.42c0-.74.6-1.35,1.35-1.35h7.85c.74,0,1.35.6,1.35,1.35h0v11.42c0,.83-.67,1.5-1.5,1.5h-2.73Z"/>
  <path class="cls-2" d="M12.87,16.07h-1.73c-.32,0-.52-.34-.36-.62l.87-1.5c.16-.28.56-.28.72,0l.87,1.5c.16.28-.04.62-.36.62Z"/>
  <g>
    <rect class="cls-2" x="15.51" y="8.91" width="1.99" height="6.68" rx="1" ry="1" transform="translate(4.25 28.76) rotate(-90)"/>
    <rect class="cls-2" x="13.79" y="9.75" width="1.99" height="3.76" rx="1" ry="1" transform="translate(12.55 -7.05) rotate(45)"/>
    <rect class="cls-2" x="13.79" y="11" width="1.99" height="3.76" rx="1" ry="1" transform="translate(-4.77 14.23) rotate(-45)"/>
    <rect class="cls-2" x="17.85" y="9.49" width="1.99" height="3.76" rx="1" ry="1"/>
  </g>
  <g>
    <rect class="cls-2" x="6.5" y="7.48" width="1.99" height="6.68" rx="1" ry="1" transform="translate(18.31 3.33) rotate(90)"/>
    <rect class="cls-2" x="8.22" y="9.57" width="1.99" height="3.76" rx="1" ry="1" transform="translate(7.63 26.05) rotate(-135)"/>
    <rect class="cls-2" x="8.22" y="8.32" width="1.99" height="3.76" rx="1" ry="1" transform="translate(22.94 10.9) rotate(135)"/>
    <rect class="cls-2" x="4.15" y="9.83" width="1.99" height="3.76" rx="1" ry="1" transform="translate(10.3 23.41) rotate(180)"/>
  </g>
</svg>