<?xml version="1.0" encoding="UTF-8"?>
<svg id="Layer_1" data-name="Layer 1" xmlns="http://www.w3.org/2000/svg" viewBox="0 0 24 24">
  <defs>
    <style>
      .cls-1 {
        fill: #2b2007;
      }

      .cls-2 {
        fill: #fbbf24;
      }
    </style>
  </defs>
  <path class="cls-1" d="M12.92,3.92v2.02H3v-.67c0-.74.6-1.35,1.35-1.35h8.57Z"/>
  <path class="cls-2" d="M16.77,17.45c-.15,0-.27.12-.27.27v2.31c0,.51-.29.8-.64.8h-.56c-.35,0-.64-.29-.64-.64v-.83c0-.15-.12-.27-.27-.27h0c-.15,0-.27.12-.27.27v.83c0,.35-.29.64-.64.64h-.56c-.35,0-.64-.29-.64-.64v-.83c0-.15-.12-.27-.27-.27h0c-.15,0-.27.12-.27.27v.83c0,.35-.29.64-.64.64h-.56c-.35,0-.64-.29-.64-.64v-.83c0-.15-.12-.27-.27-.27h0c-.15,0-.27.12-.27.27v.83c0,.35-.29.64-.64.64h-.56c-.35,0-.64-.29-.64-.8v-2.31c0-.15-.12-.27-.27-.27h-2.73c-.83,0-1.5-.67-1.5-1.5V5.94h7.45s0-1.42,0-1.42c0-.74.6-1.35,1.35-1.35h7.85c.74,0,1.35.6,1.35,1.35h0v11.42c0,.83-.67,1.5-1.5,1.5h-2.73Z"/>
  <path class="cls-1" d="M19.32,11.51l-.9.7c-.11.08-.15.22-.11.35l.31,1.1c.17.58-.48,1.05-.98.71l-.95-.64c-.11-.07-.26-.07-.37,0l-.95.64c-.5.34-1.15-.13-.98-.71l.31-1.1c.04-.13,0-.27-.11-.35l-.9-.7c-.48-.37-.23-1.13.38-1.16l1.14-.04c.14,0,.25-.09.3-.22l.39-1.07c.21-.57,1.01-.57,1.21,0l.39,1.07c.05.13.16.21.3.22l1.14.04c.6.02.85.78.37,1.16ZM10.3,11.51l-.9.7c-.11.08-.15.22-.11.35l.31,1.1c.17.58-.48,1.05-.98.71l-.95-.64c-.11-.07-.26-.07-.37,0l-.95.64c-.5.34-1.15-.13-.98-.71l.31-1.1c.04-.13,0-.27-.11-.35l-.9-.7c-.48-.37-.23-1.13.38-1.16l1.14-.04c.14,0,.25-.09.3-.22l.39-1.07c.21-.57,1.01-.57,1.21,0l.39,1.07c.05.13.16.21.3.22l1.14.04c.6.02.85.78.37,1.16Z"/>
  <path class="cls-1" d="M12.87,16.07h-1.73c-.32,0-.52-.34-.36-.62l.87-1.5c.16-.28.56-.28.72,0l.87,1.5c.16.28-.04.62-.36.62Z"/>
</svg>