<?xml version="1.0" encoding="UTF-8"?>
<svg id="Layer_1" data-name="Layer 1" xmlns="http://www.w3.org/2000/svg" viewBox="0 0 24 24">
  <defs>
    <style>
      .cls-1 {
        fill: #94a3b8;
      }

      .cls-2 {
        fill: #1b1e21;
      }
    </style>
  </defs>
  <path class="cls-2" d="M12.92,3.92v2.02H3v-.67c0-.74.6-1.35,1.35-1.35h8.57Z"/>
  <path class="cls-1" d="M16.77,17.45c-.15,0-.27.12-.27.27v2.31c0,.51-.29.8-.64.8h-.56c-.35,0-.64-.29-.64-.64v-.83c0-.15-.12-.27-.27-.27h0c-.15,0-.27.12-.27.27v.83c0,.35-.29.64-.64.64h-.56c-.35,0-.64-.29-.64-.64v-.83c0-.15-.12-.27-.27-.27h0c-.15,0-.27.12-.27.27v.83c0,.35-.29.64-.64.64h-.56c-.35,0-.64-.29-.64-.64v-.83c0-.15-.12-.27-.27-.27h0c-.15,0-.27.12-.27.27v.83c0,.35-.29.64-.64.64h-.56c-.35,0-.64-.29-.64-.8v-2.31c0-.15-.12-.27-.27-.27h-2.73c-.83,0-1.5-.67-1.5-1.5V5.94h7.45s0-1.42,0-1.42c0-.74.6-1.35,1.35-1.35h7.85c.74,0,1.35.6,1.35,1.35h0v11.42c0,.83-.67,1.5-1.5,1.5h-2.73Z"/>
  <path class="cls-2" d="M12.87,16.07h-1.73c-.32,0-.52-.34-.36-.62l.87-1.5c.16-.28.56-.28.72,0l.87,1.5c.16.28-.04.62-.36.62Z"/>
  <path class="cls-2" d="M10.43,12.14c-.01.1-.04.21-.06.31-.06.2-.14.4-.24.58-.03.05-.05.09-.08.14-.06.09-.12.18-.19.26-.07.08-.14.16-.22.24-.04.04-.08.08-.12.11-.08.07-.17.14-.26.2,0,0,0,0,0,0-.11.07-.26.02-.29-.11-.02-.08-.05-.15-.09-.22-.02-.04-.04-.08-.06-.11-.02-.04-.04-.07-.07-.11-.02-.03-.05-.07-.08-.1-.03-.03-.06-.07-.09-.1h0l-.83-.81h0s-.07-.06-.11-.07c-.12-.05-.27-.02-.37.07l-.83.81s-.06.06-.09.1c-.03.03-.06.07-.08.1-.03.04-.05.07-.07.11-.02.03-.04.07-.06.1,0,0,0,0,0,.01-.02.04-.03.07-.05.11-.01.04-.03.07-.04.11-.04.12-.19.18-.3.11,0,0,0,0,0,0-.09-.06-.18-.13-.26-.2-.04-.04-.08-.07-.12-.11-.08-.08-.15-.16-.22-.24-.07-.08-.13-.17-.19-.26-.28-.44-.43-.96-.41-1.47,0-.03,0-.06,0-.08,0-.03,0-.06,0-.1,0-.03,0-.06.01-.09.11-.73.54-1.38.73-2.09.04-.13.1-.3.25-.3.09,0,.17.07.22.14.17.2.31.42.42.66.06.13.15.28.3.26.1-.01.17-.1.21-.18.51-.86.33-1.95.79-2.82.01-.03.03-.05.04-.08.06-.1.14-.2.26-.21.16,0,.25.16.31.3.26.58.77,1.02,1.18,1.52.63.77,1.03,1.69,1.13,2.64,0,.08.02.16.02.24,0,.06.01.12.01.18,0,.15,0,.3-.02.44Z"/>
  <path class="cls-2" d="M19.45,12.14c-.01.1-.04.21-.06.31-.06.2-.14.4-.24.58-.03.05-.05.09-.08.14-.06.09-.12.18-.19.26-.07.08-.14.16-.22.24-.04.04-.08.08-.12.11-.08.07-.17.14-.26.2,0,0,0,0,0,0-.11.07-.26.02-.29-.11-.02-.08-.05-.15-.09-.22-.02-.04-.04-.08-.06-.11-.02-.04-.04-.07-.07-.11-.02-.03-.05-.07-.08-.1-.03-.03-.06-.07-.09-.1h0l-.83-.81h0s-.07-.06-.11-.07c-.12-.05-.27-.02-.37.07l-.83.81s-.06.06-.09.1c-.03.03-.06.07-.08.1-.03.04-.05.07-.07.11-.02.03-.04.07-.06.1,0,0,0,0,0,.01-.02.04-.03.07-.05.11-.01.04-.03.07-.04.11-.04.12-.19.18-.3.11,0,0,0,0,0,0-.09-.06-.18-.13-.26-.2-.04-.04-.08-.07-.12-.11-.08-.08-.15-.16-.22-.24-.07-.08-.13-.17-.19-.26-.28-.44-.43-.96-.41-1.47,0-.03,0-.06,0-.08,0-.03,0-.06,0-.1,0-.03,0-.06.01-.09.11-.73.54-1.38.73-2.09.04-.13.1-.3.25-.3.09,0,.17.07.22.14.17.2.31.42.42.66.06.13.15.28.3.26.1-.01.17-.1.21-.18.51-.86.33-1.95.79-2.82.01-.03.03-.05.04-.08.06-.1.14-.2.26-.21.16,0,.25.16.31.3.26.58.77,1.02,1.18,1.52.63.77,1.03,1.69,1.13,2.64,0,.08.02.16.02.24,0,.06.01.12.01.18,0,.15,0,.3-.02.44Z"/>
</svg>