<?xml version="1.0" encoding="UTF-8"?>
<svg id="Layer_1" data-name="Layer 1" xmlns="http://www.w3.org/2000/svg" viewBox="0 0 24 24">
  <defs>
    <style>
      .cls-1 {
        fill: #94a3b8;
      }

      .cls-2 {
        fill: #1b1e21;
      }
    </style>
  </defs>
  <path class="cls-2" d="M12.92,3.92v2.02H3v-.67c0-.74.6-1.35,1.35-1.35h8.57Z"/>
  <path class="cls-1" d="M16.77,17.45c-.15,0-.27.12-.27.27v2.31c0,.51-.29.8-.64.8h-.56c-.35,0-.64-.29-.64-.64v-.83c0-.15-.12-.27-.27-.27h0c-.15,0-.27.12-.27.27v.83c0,.35-.29.64-.64.64h-.56c-.35,0-.64-.29-.64-.64v-.83c0-.15-.12-.27-.27-.27h0c-.15,0-.27.12-.27.27v.83c0,.35-.29.64-.64.64h-.56c-.35,0-.64-.29-.64-.64v-.83c0-.15-.12-.27-.27-.27h0c-.15,0-.27.12-.27.27v.83c0,.35-.29.64-.64.64h-.56c-.35,0-.64-.29-.64-.8v-2.31c0-.15-.12-.27-.27-.27h-2.73c-.83,0-1.5-.67-1.5-1.5V5.94h7.45s0-1.42,0-1.42c0-.74.6-1.35,1.35-1.35h7.85c.74,0,1.35.6,1.35,1.35h0v11.42c0,.83-.67,1.5-1.5,1.5h-2.73Z"/>
  <path class="cls-2" d="M12.87,16.07h-1.73c-.32,0-.52-.34-.36-.62l.87-1.5c.16-.28.56-.28.72,0l.87,1.5c.16.28-.04.62-.36.62Z"/>
  <path class="cls-2" d="M16.33,8.02c.11-.06.24-.06.35,0h0s2.75,1.46,2.75,1.46c.13.07.2.2.2.35-.04.92-.38,4.29-2.97,5.55-.1.05-.22.05-.32,0-2.58-1.26-2.92-4.63-2.97-5.55,0-.14.07-.28.2-.35l2.75-1.46h0Z"/>
  <path class="cls-2" d="M7.32,8.02c.11-.06.24-.06.35,0h0s2.75,1.46,2.75,1.46c.13.07.2.2.2.35-.04.92-.38,4.29-2.97,5.55-.1.05-.22.05-.32,0-2.58-1.26-2.92-4.63-2.97-5.55,0-.14.07-.28.2-.35l2.75-1.46h0Z"/>
</svg>