<?xml version="1.0" encoding="UTF-8"?>
<svg id="Layer_1" data-name="Layer 1" xmlns="http://www.w3.org/2000/svg" viewBox="0 0 24 24">
  <defs>
    <style>
      .cls-1 {
        fill: #94a3b8;
      }

      .cls-2 {
        fill: #1b1e21;
      }
    </style>
  </defs>
  <g>
    <path class="cls-2" d="M12.92,6.79v2.02H3v-.67c0-.74.6-1.35,1.35-1.35h8.57Z"/>
    <path class="cls-1" d="M16.77,20.31c-.15,0-.27.12-.27.27v2.31c0,.51-.29.8-.64.8h-.56c-.35,0-.64-.29-.64-.64v-.83c0-.15-.12-.27-.27-.27h0c-.15,0-.27.12-.27.27v.83c0,.35-.29.64-.64.64h-.56c-.35,0-.64-.29-.64-.64v-.83c0-.15-.12-.27-.27-.27h0c-.15,0-.27.12-.27.27v.83c0,.35-.29.64-.64.64h-.56c-.35,0-.64-.29-.64-.64v-.83c0-.15-.12-.27-.27-.27h0c-.15,0-.27.12-.27.27v.83c0,.35-.29.64-.64.64h-.56c-.35,0-.64-.29-.64-.8v-2.31c0-.15-.12-.27-.27-.27h-2.73c-.83,0-1.5-.67-1.5-1.5v-10.01h7.45s0-1.42,0-1.42c0-.74.6-1.35,1.35-1.35h7.85c.74,0,1.35.6,1.35,1.35h0v11.42c0,.83-.67,1.5-1.5,1.5h-2.73Z"/>
    <g>
      <rect class="cls-2" x="15.24" y="11.22" width="2.53" height="6.37" rx="1.27" ry="1.27" transform="translate(18 36.26) rotate(-135)"/>
      <rect class="cls-2" x="15.24" y="11.22" width="2.53" height="6.37" rx="1.27" ry="1.27" transform="translate(-5.35 15.89) rotate(-45)"/>
    </g>
    <g>
      <rect class="cls-2" x="6.22" y="11.22" width="2.53" height="6.37" rx="1.27" ry="1.27" transform="translate(2.61 29.88) rotate(-135)"/>
      <rect class="cls-2" x="6.22" y="11.22" width="2.53" height="6.37" rx="1.27" ry="1.27" transform="translate(-7.99 9.52) rotate(-45)"/>
    </g>
    <path class="cls-2" d="M12.87,18.93h-1.73c-.32,0-.52-.34-.36-.62l.87-1.5c.16-.28.56-.28.72,0l.87,1.5c.16.28-.04.62-.36.62Z"/>
  </g>
  <path class="cls-1" d="M21,4.38c0,.51-.41.92-.92.92H3.92c-.51,0-.92-.41-.92-.92,0-1.02.6-1.84,1.35-1.84h5.43c0-.61.25-1.17.65-1.57.4-.4.96-.65,1.57-.65s1.17.25,1.57.65c.4.4.65.96.65,1.57h5.43c.74,0,1.35.82,1.35,1.84Z"/>
</svg>