<?xml version="1.0" encoding="UTF-8"?>
<svg id="Layer_1" data-name="Layer 1" xmlns="http://www.w3.org/2000/svg" viewBox="0 0 40 40">
  <defs>
    <style>
      .cls-1 {
        fill: #2563eb;
      }

      .cls-2 {
        fill: #111827;
      }
    </style>
  </defs>
  <g>
    <path class="cls-2" d="M21.73,4.74v3.81H3v-1.27c0-1.4,1.14-2.54,2.54-2.54h16.19Z"/>
    <path class="cls-1" d="M29.02,30.29c-.29,0-.52.23-.52.52v4.36c0,.96-.54,1.5-1.2,1.5h-1.06c-.67,0-1.2-.54-1.2-1.2v-1.57c0-.29-.23-.52-.52-.52h0c-.29,0-.52.23-.52.52v1.57c0,.67-.54,1.2-1.2,1.2h-1.06c-.67,0-1.2-.54-1.2-1.2v-1.57c0-.29-.23-.52-.52-.52h0c-.29,0-.52.23-.52.52v1.57c0,.67-.54,1.2-1.2,1.2h-1.06c-.67,0-1.2-.54-1.2-1.2v-1.57c0-.29-.23-.52-.52-.52h0c-.29,0-.52.23-.52.52v1.57c0,.67-.54,1.2-1.2,1.2h-1.06c-.67,0-1.2-.54-1.2-1.5v-4.36c0-.29-.23-.52-.52-.52h-5.15c-1.56,0-2.83-1.27-2.83-2.83V8.56h14.08s0-2.68,0-2.68c0-1.4,1.14-2.54,2.54-2.54h14.84c1.4,0,2.54,1.14,2.54,2.54h0v21.58c0,1.56-1.27,2.83-2.83,2.83h-5.15Z"/>
  </g>
  <path class="cls-2" d="M28.52,13.54c-1.54,0-2.94.62-3.96,1.64s-1.64,2.41-1.64,3.95.63,2.94,1.64,3.95c1.01,1.01,2.41,1.64,3.96,1.64s2.94-.62,3.95-1.64c1.01-1.01,1.64-2.41,1.64-3.95,0-3.09-2.5-5.59-5.59-5.59ZM15.44,15.17c-1.01-1.01-2.41-1.64-3.95-1.64s-2.94.62-3.95,1.64c-1.01,1.01-1.64,2.41-1.64,3.95,0,3.09,2.5,5.59,5.59,5.59,1.54,0,2.94-.62,3.95-1.64,1.01-1.01,1.64-2.41,1.64-3.95s-.62-2.94-1.64-3.95Z"/>
  <path class="cls-2" d="M21.63,27.68h-3.27c-.6,0-.97-.65-.67-1.17l1.64-2.83c.3-.52,1.05-.52,1.35,0l1.64,2.83c.3.52-.07,1.17-.68,1.17Z"/>
</svg>