<?xml version="1.0" encoding="UTF-8"?>
<svg id="Layer_1" data-name="Layer 1" xmlns="http://www.w3.org/2000/svg" viewBox="0 0 147.55 40">
  <defs>
    <style>
      .cls-1 {
        fill: #2563eb;
      }

      .cls-2 {
        fill: #111827;
      }

      .cls-3 {
        fill: #92cbff;
      }
    </style>
  </defs>
  <g>
    <g>
      <path class="cls-3" d="M21.73,4.74v3.81H3v-1.27c0-1.4,1.14-2.54,2.54-2.54,0,0,16.19,0,16.19,0Z"/>
      <path class="cls-1" d="M29.02,30.29c-.29,0-.52.23-.52.52v4.36c0,.96-.54,1.5-1.2,1.5h-1.06c-.67,0-1.2-.54-1.2-1.2v-1.57c0-.29-.23-.52-.52-.52h0c-.29,0-.52.23-.52.52v1.57c0,.67-.54,1.2-1.2,1.2h-1.06c-.67,0-1.2-.54-1.2-1.2v-1.57c0-.29-.23-.52-.52-.52h0c-.29,0-.52.23-.52.52v1.57c0,.67-.54,1.2-1.2,1.2h-1.06c-.67,0-1.2-.54-1.2-1.2v-1.57c0-.29-.23-.52-.52-.52h0c-.29,0-.52.23-.52.52v1.57c0,.67-.54,1.2-1.2,1.2h-1.06c-.67,0-1.2-.54-1.2-1.5v-4.36c0-.29-.23-.52-.52-.52h-5.15c-1.56,0-2.83-1.27-2.83-2.83V8.56h14.08v-2.68c0-1.4,1.14-2.54,2.54-2.54h14.84c1.4,0,2.54,1.14,2.54,2.54h0v21.58c0,1.56-1.27,2.83-2.83,2.83h-5.19Z"/>
    </g>
    <path class="cls-2" d="M28.52,13.54c-1.54,0-2.94.62-3.96,1.64s-1.64,2.41-1.64,3.95.63,2.94,1.64,3.95,2.41,1.64,3.96,1.64,2.94-.62,3.95-1.64c1.01-1.01,1.64-2.41,1.64-3.95,0-3.09-2.5-5.59-5.59-5.59ZM15.44,15.17c-1.01-1.01-2.41-1.64-3.95-1.64s-2.94.62-3.95,1.64c-1.01,1.01-1.64,2.41-1.64,3.95,0,3.09,2.5,5.59,5.59,5.59,1.54,0,2.94-.62,3.95-1.64,1.01-1.01,1.64-2.41,1.64-3.95s-.62-2.94-1.64-3.95Z"/>
    <path class="cls-2" d="M21.63,27.68h-3.27c-.6,0-.97-.65-.67-1.17l1.64-2.83c.3-.52,1.05-.52,1.35,0l1.64,2.83c.3.52-.07,1.17-.68,1.17h0Z"/>
  </g>
  <path class="cls-1" d="M46.1,30.29c-.16,0-.3-.06-.42-.17s-.18-.25-.18-.41v-14.35c0-.16.06-.3.18-.41s.26-.17.42-.17h2.95c.27,0,.47.07.6.22.13.15.22.25.27.31l3.54,6.16,3.54-6.16c.04-.06.13-.16.27-.31.13-.15.33-.22.6-.22h2.95c.16,0,.3.06.41.17s.17.25.17.41v14.35c0,.16-.06.3-.17.41-.11.11-.25.17-.41.17h-3.32c-.16,0-.3-.06-.41-.17s-.17-.25-.17-.41v-7.17l-1.99,3.5c-.07.12-.17.24-.29.35-.12.12-.29.18-.51.18h-1.35c-.21,0-.37-.06-.49-.18-.12-.12-.21-.24-.29-.35l-1.99-3.5v7.17c0,.16-.06.3-.17.41-.11.11-.25.17-.41.17h-3.33Z"/>
  <path class="cls-1" d="M69.11,30.51c-1.3,0-2.4-.19-3.29-.58-.89-.38-1.58-.95-2.05-1.69-.47-.75-.74-1.64-.8-2.69,0-.31-.02-.65-.02-1.02s0-.71.02-1.02c.06-1.06.34-1.96.84-2.7.5-.74,1.2-1.3,2.09-1.68.89-.38,1.96-.58,3.2-.58s2.31.19,3.2.58c.89.38,1.59.94,2.09,1.68s.78,1.64.84,2.7c.03.31.04.65.04,1.02s-.01.71-.04,1.02c-.06,1.05-.32,1.95-.8,2.69-.47.75-1.16,1.31-2.05,1.69s-1.99.58-3.29.58h.02ZM69.11,27.38c.55,0,.92-.16,1.13-.49.21-.32.32-.81.35-1.46.01-.22.02-.52.02-.91s0-.69-.02-.91c-.03-.63-.15-1.12-.35-1.45-.21-.33-.58-.5-1.13-.5s-.9.17-1.11.5-.33.82-.38,1.45c-.02.22-.02.52-.02.91s0,.69.02.91c.04.65.17,1.14.38,1.46s.58.49,1.11.49Z"/>
  <path class="cls-1" d="M77.47,30.29c-.16,0-.3-.06-.41-.17s-.17-.25-.17-.41v-10.36c0-.16.06-.3.17-.41s.25-.17.41-.17h3.21c.16,0,.3.06.41.17s.17.25.17.41v.82c.44-.43.95-.77,1.52-1.02s1.19-.38,1.87-.38h1c.16,0,.3.06.42.17.12.11.18.25.18.41v2.86c0,.16-.06.3-.18.41s-.26.17-.42.17h-2.48c-.53,0-.94.14-1.22.42s-.42.69-.42,1.22v5.29c0,.16-.06.3-.17.41s-.25.17-.41.17h-3.48,0Z"/>
  <path class="cls-1" d="M93.68,35.16c-1.2,0-2.19-.15-2.98-.45s-1.42-.67-1.89-1.11c-.47-.44-.81-.86-1.01-1.28-.2-.42-.31-.75-.32-.99-.01-.16.04-.3.16-.41s.26-.17.42-.17h3.57c.15,0,.27.04.37.11.1.07.17.18.23.33.07.13.16.27.25.4.1.13.23.24.41.31s.41.11.69.11c.34,0,.62-.06.83-.18s.38-.3.49-.55.17-.58.17-1v-1.48c-.35.34-.79.61-1.3.81-.51.2-1.11.3-1.8.3s-1.37-.1-1.94-.3c-.57-.2-1.05-.51-1.44-.92s-.7-.94-.93-1.57-.36-1.4-.39-2.28c-.01-.38-.01-.77,0-1.15.03-.83.16-1.56.38-2.2s.53-1.18.93-1.61.88-.76,1.45-.99,1.21-.34,1.94-.34c.77,0,1.43.14,1.99.43s1.02.66,1.37,1.12v-.75c0-.16.06-.3.17-.41s.25-.17.41-.17h3.21c.16,0,.3.06.41.17s.17.25.17.41l.02,10.58c0,1.2-.25,2.18-.76,2.95s-1.21,1.34-2.11,1.72-1.95.56-3.14.56h-.03ZM93.48,26.54c.35,0,.64-.07.86-.22s.39-.34.5-.59c.11-.24.18-.52.21-.83.01-.13.02-.35.02-.64s0-.5-.02-.62c-.03-.31-.1-.59-.21-.83s-.28-.44-.5-.59-.51-.22-.86-.22c-.38,0-.69.08-.91.23s-.38.37-.48.64c-.1.27-.16.59-.19.94-.03.31-.03.61,0,.91.03.35.09.67.19.94.1.27.25.49.48.64s.52.23.91.23h0Z"/>
  <path class="cls-1" d="M101.99,30.29c-.16,0-.3-.06-.41-.17s-.17-.25-.17-.41v-10.36c0-.16.06-.3.17-.41s.25-.17.41-.17h3.28c.16,0,.3.06.42.17s.18.25.18.41v10.36c0,.16-.06.3-.18.41s-.26.17-.42.17c0,0-3.28,0-3.28,0ZM102.03,17.33c-.16,0-.3-.06-.41-.17s-.17-.25-.17-.41v-2.33c0-.16.06-.3.17-.42s.25-.18.41-.18h3.19c.16,0,.3.06.42.18.12.12.18.26.18.42v2.33c0,.16-.06.3-.18.41s-.26.17-.42.17h-3.19Z"/>
  <path class="cls-3" d="M108.05,30.29c-.15,0-.28-.06-.4-.17s-.18-.25-.18-.41v-14.35c0-.16.06-.3.18-.41s.25-.17.4-.17h10.67c.16,0,.3.06.42.17.12.11.18.25.18.41v2.81c0,.15-.06.28-.18.4-.12.12-.26.18-.42.18h-6.58v2.44h6.13c.16,0,.3.06.42.17.12.11.18.25.18.41v2.79c0,.16-.06.3-.18.41s-.26.17-.42.17h-6.13v4.58c0,.16-.06.3-.17.41s-.25.17-.41.17h-3.52.01Z"/>
  <path class="cls-3" d="M121.23,30.29c-.16,0-.3-.06-.41-.17s-.17-.25-.17-.41v-10.36c0-.16.06-.3.17-.41s.25-.17.41-.17h3.28c.16,0,.3.06.42.17s.18.25.18.41v10.36c0,.16-.06.3-.18.41s-.26.17-.42.17c0,0-3.28,0-3.28,0ZM121.27,17.33c-.16,0-.3-.06-.41-.17s-.17-.25-.17-.41v-2.33c0-.16.06-.3.17-.42s.25-.18.41-.18h3.19c.16,0,.3.06.42.18.12.12.18.26.18.42v2.33c0,.16-.06.3-.18.41s-.26.17-.42.17h-3.19Z"/>
  <path class="cls-3" d="M127.36,30.29c-.16,0-.3-.06-.41-.17s-.17-.25-.17-.41v-14.57c0-.16.06-.3.17-.41s.25-.17.41-.17h3.3c.15,0,.28.06.4.17s.18.25.18.41v14.57c0,.16-.06.3-.18.41s-.25.17-.4.17h-3.3Z"/>
  <path class="cls-3" d="M138.59,30.51c-1.85,0-3.31-.48-4.4-1.43s-1.64-2.41-1.67-4.37v-.44c.04-1.23.31-2.26.81-3.11.49-.85,1.19-1.49,2.08-1.94.89-.44,1.94-.66,3.16-.66,1.36,0,2.48.27,3.38.81.89.54,1.56,1.25,2,2.15.44.89.66,1.89.66,3v.62c0,.15-.06.28-.18.4-.12.12-.26.18-.42.18h-6.82v.13c0,.35.05.67.14.94.1.27.25.49.45.64.21.16.46.23.75.23.19,0,.35-.03.49-.09.13-.06.25-.14.35-.23.1-.1.19-.19.27-.28.13-.13.24-.22.32-.25.08-.04.21-.06.39-.06h3.48c.13,0,.25.04.34.13.1.09.14.2.12.33,0,.27-.14.59-.38.96-.24.38-.59.74-1.05,1.1-.47.35-1.06.65-1.78.89s-1.56.35-2.5.35h0ZM137.2,23.22h2.75v-.04c0-.4-.05-.74-.16-1.02-.1-.28-.26-.49-.47-.63s-.46-.21-.75-.21-.55.07-.75.21c-.21.14-.36.35-.47.63-.1.28-.16.62-.16,1.02v.04h.01Z"/>
</svg>